<svg xml:space="preserve" id="numberize_svg__Layer_1" width="336.9" height="389.2" x="0" y="0" version="1.1" xmlns="http://www.w3.org/2000/svg">
  <defs id="numberize_svg__defs1564">
    <clipPath id="numberize_svg__clipPath34176" clipPathUnits="userSpaceOnUse">
      <path id="numberize_svg__path34174" d="M0 792h612V0H0Z"/>
    </clipPath>
    <clipPath id="numberize_svg__clipPath34210" clipPathUnits="userSpaceOnUse">
      <path id="numberize_svg__path34208" d="M459.52 23.96h27.16v27.16h-27.16z"/>
    </clipPath>
    <clipPath id="numberize_svg__clipPath34218" clipPathUnits="userSpaceOnUse">
      <path id="numberize_svg__path34216" d="M-32768 32767h65535v-65535h-65535Z"/>
    </clipPath>
    <clipPath id="numberize_svg__clipPath34236" clipPathUnits="userSpaceOnUse">
      <path id="numberize_svg__path34234" d="M0 720.36h612V792H0Z"/>
    </clipPath>
    <clipPath id="numberize_svg__clipPath56868" clipPathUnits="userSpaceOnUse">
      <path id="numberize_svg__path56866" d="M0 0h612v792H0Z"/>
    </clipPath>
    <clipPath id="numberize_svg__clipPath56880" clipPathUnits="userSpaceOnUse">
      <path id="numberize_svg__path56878" d="M36.78 402.988h234.704V674H36.78Z"/>
    </clipPath>
    <clipPath id="numberize_svg__clipPath59868" clipPathUnits="userSpaceOnUse">
      <path id="numberize_svg__path59866" d="M36.78 402.988h234.704V674H36.78Z"/>
    </clipPath>
    <clipPath id="numberize_svg__clipPath59926" clipPathUnits="userSpaceOnUse">
      <path id="numberize_svg__path59924" d="M36.78 402.988h234.704V674H36.78Z"/>
    </clipPath>
    <clipPath id="numberize_svg__clipPath59992" clipPathUnits="userSpaceOnUse">
      <path id="numberize_svg__path59990" d="M36.78 402.988h234.704V674H36.78Z"/>
    </clipPath>
    <clipPath id="numberize_svg__clipPath60076" clipPathUnits="userSpaceOnUse">
      <path id="numberize_svg__path60074" d="M124.772 549.341h.005zm-.002 0h.002z"/>
    </clipPath>
    <clipPath id="numberize_svg__clipPath60156" clipPathUnits="userSpaceOnUse">
      <path id="numberize_svg__path60154" d="M36.78 402.988h234.704V674H36.78Z"/>
    </clipPath>
    <clipPath id="numberize_svg__clipPath60288" clipPathUnits="userSpaceOnUse">
      <path id="numberize_svg__path60286" d="M36.78 402.988h234.704V674H36.78Z"/>
    </clipPath>
    <clipPath id="numberize_svg__clipPath60410" clipPathUnits="userSpaceOnUse">
      <path id="numberize_svg__path60408" d="M36.78 402.988h234.704V674H36.78Z"/>
    </clipPath>
    <clipPath id="numberize_svg__clipPath60498" clipPathUnits="userSpaceOnUse">
      <path id="numberize_svg__path60496" d="M36.78 402.988h234.704V674H36.78Z"/>
    </clipPath>
    <clipPath id="numberize_svg__clipPath60592" clipPathUnits="userSpaceOnUse">
      <path id="numberize_svg__path60590" d="M36.78 402.988h234.704V674H36.78Z"/>
    </clipPath>
    <clipPath id="numberize_svg__clipPath60702" clipPathUnits="userSpaceOnUse">
      <path id="numberize_svg__path60700" d="M36.78 402.988h234.704V674H36.78Z"/>
    </clipPath>
    <clipPath id="numberize_svg__clipPath60802" clipPathUnits="userSpaceOnUse">
      <path id="numberize_svg__path60800" d="M36.78 402.988h234.704V674H36.78Z"/>
    </clipPath>
    <clipPath id="numberize_svg__clipPath60904" clipPathUnits="userSpaceOnUse">
      <path id="numberize_svg__path60902" d="M36.78 402.988h234.704V674H36.78Z"/>
    </clipPath>
    <clipPath id="numberize_svg__clipPath61258" clipPathUnits="userSpaceOnUse">
      <path id="numberize_svg__path61256" d="M350.6 319.644h180.049V369.2H350.6Z"/>
    </clipPath>
    <linearGradient id="numberize_svg__linearGradient59858" x1="0" x2="1" y1="0" y2="0" gradientTransform="matrix(234.70403 0 0 -234.70403 36.78 538.494)" gradientUnits="userSpaceOnUse" spreadMethod="pad">
      <stop id="numberize_svg__stop59854" offset="0" style="stop-opacity:1;stop-color:#151e27"/>
      <stop id="numberize_svg__stop59856" offset="1" style="stop-opacity:1;stop-color:#2f68a6"/>
    </linearGradient>
    <linearGradient id="numberize_svg__linearGradient59892" x1="0" x2="1" y1="0" y2="0" gradientTransform="matrix(0 -61.77663 -61.77663 0 117.429 609.961)" gradientUnits="userSpaceOnUse" spreadMethod="pad">
      <stop id="numberize_svg__stop59884" offset="0" style="stop-opacity:1;stop-color:#d4e623"/>
      <stop id="numberize_svg__stop59886" offset="0" style="stop-opacity:1;stop-color:#d4e623"/>
      <stop id="numberize_svg__stop59888" offset="1" style="stop-opacity:1;stop-color:#a9d12f"/>
      <stop id="numberize_svg__stop59890" offset="1" style="stop-opacity:1;stop-color:#a9d12f"/>
    </linearGradient>
    <linearGradient id="numberize_svg__linearGradient59916" x1="0" x2="1" y1="0" y2="0" gradientTransform="matrix(0 -61.77663 -61.77663 0 117.429 609.961)" gradientUnits="userSpaceOnUse" spreadMethod="pad">
      <stop id="numberize_svg__stop59908" offset="0" style="stop-opacity:1;stop-color:#c4e124"/>
      <stop id="numberize_svg__stop59910" offset="0" style="stop-opacity:1;stop-color:#c4e124"/>
      <stop id="numberize_svg__stop59912" offset="1" style="stop-opacity:1;stop-color:#99cd30"/>
      <stop id="numberize_svg__stop59914" offset="1" style="stop-opacity:1;stop-color:#99cd30"/>
    </linearGradient>
    <linearGradient id="numberize_svg__linearGradient59982" x1="0" x2="1" y1="0" y2="0" gradientTransform="matrix(0 -61.77663 -61.77663 0 117.429 609.961)" gradientUnits="userSpaceOnUse" spreadMethod="pad">
      <stop id="numberize_svg__stop59974" offset="0" style="stop-opacity:1;stop-color:#eff5a7"/>
      <stop id="numberize_svg__stop59976" offset="0" style="stop-opacity:1;stop-color:#eff5a7"/>
      <stop id="numberize_svg__stop59978" offset="1" style="stop-opacity:1;stop-color:#deeda7"/>
      <stop id="numberize_svg__stop59980" offset="1" style="stop-opacity:1;stop-color:#deeda7"/>
    </linearGradient>
    <linearGradient id="numberize_svg__linearGradient60066" x1="0" x2="1" y1="0" y2="0" gradientTransform="matrix(0 -61.77663 -61.77663 0 117.429 609.961)" gradientUnits="userSpaceOnUse" spreadMethod="pad">
      <stop id="numberize_svg__stop60058" offset="0" style="stop-opacity:1;stop-color:#ecf498"/>
      <stop id="numberize_svg__stop60060" offset="0" style="stop-opacity:1;stop-color:#ecf498"/>
      <stop id="numberize_svg__stop60062" offset="1" style="stop-opacity:1;stop-color:#d8e999"/>
      <stop id="numberize_svg__stop60064" offset="1" style="stop-opacity:1;stop-color:#d8e999"/>
    </linearGradient>
    <linearGradient id="numberize_svg__linearGradient60098" x1="0" x2="1" y1="0" y2="0" gradientTransform="matrix(0 -61.77663 -61.77663 0 117.429 609.961)" gradientUnits="userSpaceOnUse" spreadMethod="pad">
      <stop id="numberize_svg__stop60090" offset="0" style="stop-opacity:1;stop-color:#e4f198"/>
      <stop id="numberize_svg__stop60092" offset="0" style="stop-opacity:1;stop-color:#e4f198"/>
      <stop id="numberize_svg__stop60094" offset="1" style="stop-opacity:1;stop-color:#d1e798"/>
      <stop id="numberize_svg__stop60096" offset="1" style="stop-opacity:1;stop-color:#d1e798"/>
    </linearGradient>
    <linearGradient id="numberize_svg__linearGradient60558" x1="0" x2="1" y1="0" y2="0" gradientTransform="matrix(0 -61.77663 -61.77663 0 117.429 609.961)" gradientUnits="userSpaceOnUse" spreadMethod="pad">
      <stop id="numberize_svg__stop60550" offset="0" style="stop-opacity:1;stop-color:#f7fad7"/>
      <stop id="numberize_svg__stop60552" offset="0" style="stop-opacity:1;stop-color:#f7fad7"/>
      <stop id="numberize_svg__stop60554" offset="1" style="stop-opacity:1;stop-color:#f0f6d6"/>
      <stop id="numberize_svg__stop60556" offset="1" style="stop-opacity:1;stop-color:#f0f6d6"/>
    </linearGradient>
    <linearGradient id="numberize_svg__linearGradient60582" x1="0" x2="1" y1="0" y2="0" gradientTransform="matrix(0 -61.77663 -61.77663 0 117.429 609.961)" gradientUnits="userSpaceOnUse" spreadMethod="pad">
      <stop id="numberize_svg__stop60574" offset="0" style="stop-opacity:1;stop-color:#f5fad6"/>
      <stop id="numberize_svg__stop60576" offset="0" style="stop-opacity:1;stop-color:#f5fad6"/>
      <stop id="numberize_svg__stop60578" offset="1" style="stop-opacity:1;stop-color:#edf5d5"/>
      <stop id="numberize_svg__stop60580" offset="1" style="stop-opacity:1;stop-color:#edf5d5"/>
    </linearGradient>
  </defs>
  <style id="style2" type="text/css">
    .numberize_svg__st4{fill:url(#numberize_svg__SVGID_1_)}
  </style>
  <linearGradient id="numberize_svg__SVGID_1_" x1="133.059" x2="470.048" y1="392.074" y2="392.074" gradientTransform="translate(-133.1 -197.5)" gradientUnits="userSpaceOnUse">
    <stop id="numberize_svg__stop1488" offset="0" style="stop-color:#0b1e2c"/>
    <stop id="numberize_svg__stop1490" offset="1" style="stop-color:#0d6c9f"/>
  </linearGradient>
  <path id="numberize_svg__path112415" d="M168.5 0 0 97.3v194.6l168.5 97.3 168.4-97.3V97.3Z" class="numberize_svg__st4" style="fill:#ece7df;fill-opacity:1"/>
  <g id="numberize_svg__g150968" transform="translate(.424 -30.273) scale(1.11792)">
    <path id="numberize_svg__path1092" d="M31.532 272.615v-11.85c0-5.201 2.36-7.899 7.61-7.899 4.962 0 6.985 2.264 6.985 6.744v13.005h5.202v-14.402c0-5.54-3.275-10.02-9.922-10.02-6.07 0-9.249 3.854-9.971 7.9h-.337v-7.417h-4.77v23.94z" style="font-weight:500;font-size:48.1682px;font-family:&quot;Clash Display&quot;;-inkscape-font-specification:&quot;Clash Display Medium&quot;;fill:#161e26;fill-opacity:1;stroke-width:.0845887"/>
    <path id="numberize_svg__path1094" d="M65.924 273.097c6.166 0 9.345-3.854 10.115-7.9h.29v7.418h4.768v-23.94h-5.154v11.85c0 5.202-2.456 7.9-7.755 7.9-5.058 0-7.129-2.264-7.129-6.744v-13.005h-5.154v14.402c0 5.54 3.276 10.019 10.02 10.019z" style="font-weight:500;font-size:48.1682px;font-family:&quot;Clash Display&quot;;-inkscape-font-specification:&quot;Clash Display Medium&quot;;fill:#161e26;fill-opacity:1;stroke-width:.0845887"/>
    <path id="numberize_svg__path1096" d="M91.02 272.615v-11.85c0-5.298 1.782-7.899 6.936-7.899 4.624 0 6.454 2.023 6.454 6.744v13.005h5.154v-11.85c0-5.298 1.83-7.899 6.937-7.899 4.624 0 6.502 2.023 6.502 6.744v13.005h5.154v-14.402c0-5.78-3.13-10.02-9.344-10.02-6.07 0-8.767 3.806-9.393 7.9h-.289c-.674-4.576-3.613-7.9-9.056-7.9-5.973 0-8.574 3.71-9.2 7.708h-.289v-7.225h-4.768v23.94z" style="font-weight:500;font-size:48.1682px;font-family:&quot;Clash Display&quot;;-inkscape-font-specification:&quot;Clash Display Medium&quot;;fill:#161e26;fill-opacity:1;stroke-width:.0845887"/>
    <path id="numberize_svg__path1098" d="M137.598 272.615v-6.888h.338c1.011 4.769 4.527 7.37 9.97 7.37 7.61 0 11.705-5.058 11.705-12.428 0-7.466-4.046-12.475-11.416-12.475-5.732 0-8.91 2.938-9.874 6.984h-.29v-14.836h-5.201v32.273zm.434-11.705v-.385c0-5.106 2.938-7.61 8.333-7.61 5.106 0 8.044 1.974 8.044 7.754 0 5.732-2.89 7.66-8.14 7.66-5.154 0-8.237-2.41-8.237-7.419z" style="font-weight:500;font-size:48.1682px;font-family:&quot;Clash Display&quot;;-inkscape-font-specification:&quot;Clash Display Medium&quot;;fill:#161e26;fill-opacity:1;stroke-width:.0845887"/>
    <path id="numberize_svg__path1100" d="M175.266 273.097c7.129 0 12.138-3.516 12.138-8.622v-.434h-5.202v.386c0 2.841-2.071 4.48-7.08 4.48-5.54 0-7.804-2.457-7.997-7.082h20.327c.145-.722.193-1.396.193-2.263 0-7.274-5.058-11.368-12.476-11.368-7.803 0-12.909 5.01-12.909 12.475 0 7.996 5.154 12.428 13.006 12.428zm-.193-20.809c5.106 0 7.659 2.12 7.659 6.551v.096h-15.558c.289-4.287 2.6-6.647 7.9-6.647z" style="font-weight:500;font-size:48.1682px;font-family:&quot;Clash Display&quot;;-inkscape-font-specification:&quot;Clash Display Medium&quot;;fill:#161e26;fill-opacity:1;stroke-width:.0845887"/>
    <path id="numberize_svg__path1102" d="M196.749 272.615v-13.439c0-4.287 1.686-6.55 5.78-6.55 3.564 0 5.01 1.589 5.01 5.009v2.12h5.154v-3.132c0-4.528-2.36-8.43-7.804-8.43-4.913 0-7.514 3.084-8.237 6.937h-.337v-6.454h-4.768v23.94z" style="font-weight:500;font-size:48.1682px;font-family:&quot;Clash Display&quot;;-inkscape-font-specification:&quot;Clash Display Medium&quot;;fill:#161e26;fill-opacity:1;stroke-width:.0845887"/>
    <path id="numberize_svg__path1104" d="M221.17 245.882v-5.54h-5.202v5.54zm0 26.733v-23.94h-5.202v23.94z" style="font-weight:500;font-size:48.1682px;font-family:&quot;Clash Display&quot;;-inkscape-font-specification:&quot;Clash Display Medium&quot;;fill:#161e26;fill-opacity:1;stroke-width:.0845887"/>
    <path id="numberize_svg__path1106" d="M249.493 272.615v-4.576h-13.776l-4.432.241v-.385l4.432-3.276 13.053-11.464v-4.48h-23.36v4.576h11.464l5.058-.192v.385l-5.058 3.805-12.187 10.886v4.48z" style="font-weight:500;font-size:48.1682px;font-family:&quot;Clash Display&quot;;-inkscape-font-specification:&quot;Clash Display Medium&quot;;fill:#161e26;fill-opacity:1;stroke-width:.0845887"/>
    <path id="numberize_svg__path1108" d="M265.051 273.097c7.13 0 12.139-3.516 12.139-8.622v-.434h-5.203v.386c0 2.841-2.07 4.48-7.08 4.48-5.54 0-7.804-2.457-7.996-7.082h20.327c.144-.722.192-1.396.192-2.263 0-7.274-5.057-11.368-12.475-11.368-7.803 0-12.91 5.01-12.91 12.475 0 7.996 5.155 12.428 13.006 12.428zm-.192-20.809c5.105 0 7.658 2.12 7.658 6.551v.096H256.96c.289-4.287 2.601-6.647 7.9-6.647z" style="font-weight:500;font-size:48.1682px;font-family:&quot;Clash Display&quot;;-inkscape-font-specification:&quot;Clash Display Medium&quot;;fill:#161e26;fill-opacity:1;stroke-width:.0845887"/>
  </g>
  <path id="numberize_svg__path1493" d="m168.5 5.8 163.4 94.4V289l-163.5 94.4L4.9 289V100.2L168.5 5.8m0-5.8L0 97.3v194.6l168.5 97.3 168.4-97.3V97.3Z" class="numberize_svg__st4" style="fill:url(#numberize_svg__SVGID_1_)"/>
  <g id="numberize_svg__g1533" transform="translate(-133.1 -197.5)">
    <path id="numberize_svg__path1517" d="M248.7 515.7v-17.1h14.4v3.4h-10.6v3.3h10.2v3.4h-10.2v3.4h10.6v3.4h-14.4z"/>
    <path id="numberize_svg__path1519" d="M264.9 520.1V503h3.5v3.5h.3c.5-2.4 2.1-3.7 5.1-3.7 3.9 0 6.1 2.6 6.1 6.6 0 4-2.1 6.6-6 6.6-3 0-4.6-1.5-5-3.7h-.2v7.8zm7.5-7.6c2.4 0 3.6-.8 3.6-3.1s-1.1-3.1-3.6-3.1-3.7.8-3.7 3.1v.2c0 2.1 1.3 2.9 3.7 2.9z"/>
    <path id="numberize_svg__path1521" d="M281.4 501.7v-3h3.8v3zm0 14V503h3.8v12.8h-3.8z"/>
    <path id="numberize_svg__path1523" d="m291.6 515.7-5.8-12.8h4.3l3.8 9h.3l3.8-9h4.2l-5.8 12.8z"/>
    <path id="numberize_svg__path1525" d="M301.7 509.4c0-4.1 2.9-6.6 7.1-6.6 4.2 0 7 2.2 7 6.2 0 .5-.1.8-.1 1.2h-10.4c.1 2 1 2.8 3.5 2.8 2.3 0 3.1-.6 3.1-1.7v-.3h3.8v.3c0 2.8-2.7 4.7-6.8 4.7-4.3 0-7.2-2.1-7.2-6.6zm3.6-1.3h6.8c-.1-1.7-1.1-2.4-3.4-2.4s-3.3.8-3.4 2.4z"/>
    <path id="numberize_svg__path1527" d="M317.2 515.7V503h3.5v3.4h.2c.4-2.1 1.7-3.6 4.3-3.6 2.9 0 4 2 4 4.5v2.1h-3.8V508c0-1.4-.6-2-2.1-2-1.7 0-2.3.8-2.3 2.4v7.4h-3.8z"/>
    <path id="numberize_svg__path1529" d="m330.1 511.4 3.8-.1v.2c0 1.1.7 1.5 2.9 1.5 2 0 2.5-.3 2.5-1.1 0-.7-.4-.9-1.9-1.1l-3.6-.4c-2.5-.3-4-1.4-4-3.6s1.9-4 6.3-4c4.2 0 6.5 1.6 6.5 4.7v.1h-3.8v-.2c0-1-.5-1.6-2.9-1.6-1.9 0-2.4.3-2.4 1.1 0 .7.4.9 2 1.1l2.7.3c3.4.4 4.7 1.5 4.7 3.6 0 2.4-2.4 4-6.3 4-4.1.1-6.5-1.6-6.5-4.5z"/>
    <path id="numberize_svg__path1531" d="M343.9 509.4c0-4.1 2.9-6.6 7.1-6.6 4.2 0 7 2.2 7 6.2 0 .5-.1.8-.1 1.2h-10.4c.1 2 1 2.8 3.5 2.8 2.3 0 3.1-.6 3.1-1.7v-.3h3.8v.3c0 2.8-2.7 4.7-6.8 4.7-4.3 0-7.2-2.1-7.2-6.6zm3.6-1.3h6.8c-.1-1.7-1.1-2.4-3.4-2.4s-3.2.8-3.4 2.4z"/>
  </g>
  <g id="numberize_svg__g1557" transform="translate(-133.1 -197.5)">
    <path id="numberize_svg__path1535" d="M336 528.3c-1.1 0-2 .9-2 2s.8 2 2 2c1.1 0 2-.8 2-2-.1-1.1-.9-2-2-2m7.3-5.2c-3 0-5.2 1.9-5.2 4.6 0 2.7 2.1 4.6 5.2 4.6s5.2-1.9 5.2-4.6c0-2.8-2.1-4.6-5.2-4.6m0 8.9c-1 0-1.3-.9-1.3-4.3 0-3.6.3-4.3 1.3-4.3s1.3.8 1.3 4.3c0 3.4-.3 4.3-1.3 4.3m12-9.1c-1.1 0-2.3.9-2.5 2.2l-3.5-2.2v9.3h3.6v-6.6c0-1.4 1.6-1.4 2.4-1.4zm6.2 6.8h-5.3l1.5-1c.6.2.9.2 1.7.2 2.9 0 4.3-1 4.3-2.9 0-1.1-.6-2-1.7-2.6h2.2v-1.3l-2.6 1.2c-.6-.2-1.3-.3-2.1-.3-2.9 0-4.2 1.2-4.2 2.9 0 1.2.7 2.1 1.8 2.6l-1.9 1.2.9 3.1h8.4c0-.1 0-.1.1-.2v-1.1c-.4-1.1-1.3-1.8-3.1-1.8m-2.1-6.5c1 0 1.2 1.1 1.2 2.8 0 1.5-.2 2.7-1.2 2.7s-1.2-1.2-1.2-2.7c0-1.7.2-2.8 1.2-2.8m-45.2-.2c-.9 0-2.3.2-3.5.6v1.3c.8-.8 2-1.7 3-1.7s1.1.9 1.1 1.6v1.9c-3.6 0-5.2 1.2-5.2 3 0 1.6 1.1 2.3 2.6 2.3 1.6 0 2.6-1 2.7-2l3.4 2.1v-5.9c.2-2.5-1.2-3.2-4.1-3.2m.7 6.9c0 .4-.3.9-.9.9-.7 0-1-.6-1-1.6s.5-2 1.9-2.3zm10-7.2h-1.4v-2.4l-3.5 2.4h-1.3v.7h1.3v8.8h3.5v-8.8h1.4zm-19.3-3.3v5.3c-.3-1.1-1.3-1.8-2.6-1.8-2.3 0-3.8 1.9-3.8 4.7 0 2.7 1.3 4.5 3.7 4.5 1.6 0 2.5-.8 2.7-2l3.6 2.1v-10.6zm0 10.1c0 .8-.4 1.4-1.1 1.4-1.3 0-1.4-1.5-1.4-3.4 0-2.1.2-3.3 1.4-3.3.7 0 1.1.6 1.1 1.4zm23.2-6.5c-.9 0-2.3.2-3.5.6v1.3c.8-.8 2-1.7 3-1.7s1.1.9 1.1 1.6v1.9c-3.6 0-5.2 1.2-5.2 3 0 1.6 1.1 2.3 2.6 2.3 1.6 0 2.6-1 2.7-2l3.4 2.1v-5.9c.2-2.5-1.3-3.2-4.1-3.2m.7 6.9c0 .4-.3.9-.9.9-.7 0-1-.6-1-1.6s.5-2 1.9-2.3z" style="fill-rule:evenodd;clip-rule:evenodd"/>
    <g id="numberize_svg__g1555">
      <path id="numberize_svg__path1537" d="M240.4 532.8v-6.3h.4v1.3h.1c.2-.8 1-1.4 2.1-1.4 1.5 0 2.3 1 2.3 2.4s-.8 2.4-2.3 2.4c-1 0-1.8-.6-2-1.5v3h-.6zm2.4-1.9c1.2 0 2-.5 2-2s-.8-2-1.9-2c-1.2 0-2 .8-2 2v.1c-.1 1.2.7 1.9 1.9 1.9z"/>
      <path id="numberize_svg__path1539" d="M245.8 528.9c0-1.4 1-2.4 2.5-2.4s2.5 1 2.5 2.4-1 2.4-2.5 2.4-2.5-1-2.5-2.4zm4.6 0c0-1.2-.7-2-2.1-2-1.4 0-2.1.8-2.1 2s.7 2 2.1 2c1.4 0 2.1-.8 2.1-2z"/>
      <path id="numberize_svg__path1541" d="m252.9 531.2-1.6-4.6h.4l1.1 3.4.2.8.3-.9 1.4-3.4h.5l1.4 3.4.3.8.2-.8 1.1-3.4h.4l-1.6 4.6h-.5l-1.4-3.3-.4-.9-.4.9-1.4 3.3z"/>
      <path id="numberize_svg__path1543" d="M259.4 528.9c0-1.4.9-2.4 2.4-2.4 1.3 0 2.3.8 2.3 2.1v.4h-4.2c0 1.2.6 1.9 2 1.9 1.2 0 1.8-.5 1.8-1.2v-.1h.4v.1c0 1-1 1.6-2.2 1.6-1.5 0-2.5-1-2.5-2.4zm.4-.2h3.9v-.2c0-1.1-.7-1.7-1.9-1.7-1.3 0-1.9.8-2 1.9z"/>
      <path id="numberize_svg__path1545" d="M265.1 531.2v-4.6h.4v1.3c.1-.7.7-1.4 1.7-1.4 1.1 0 1.6.8 1.6 1.7v.4h-.4v-.3c0-.9-.4-1.3-1.3-1.3-1.1 0-1.5.7-1.5 1.9v2.5h-.5z"/>
      <path id="numberize_svg__path1547" d="M269.3 528.9c0-1.4.9-2.4 2.4-2.4 1.3 0 2.3.8 2.3 2.1v.4h-4.2c0 1.2.6 1.9 2 1.9 1.2 0 1.8-.5 1.8-1.2v-.1h.4v.1c0 1-1 1.6-2.2 1.6-1.6 0-2.5-1-2.5-2.4zm.4-.2h3.9v-.2c0-1.1-.7-1.7-1.9-1.7-1.3 0-1.9.8-2 1.9z"/>
      <path id="numberize_svg__path1549" d="M274.6 528.9c0-1.4.8-2.4 2.3-2.4 1.1 0 1.8.6 2 1.4v-3h.4v6.3h-.3v-1.4c-.2.9-1 1.5-2.1 1.5-1.5 0-2.3-1-2.3-2.4zm2.4 2c1.2 0 2-.7 2-1.9v-.1c0-1.3-.8-2-2-2-1.1 0-1.9.5-1.9 2-.1 1.5.7 2 1.9 2z"/>
      <path id="numberize_svg__path1551" d="M284.3 531.2v-6.3h.4v3c.2-.8.9-1.4 2.1-1.4 1.5 0 2.3 1 2.3 2.4s-.8 2.4-2.3 2.4c-1 0-1.8-.6-2-1.5v1.4zm2.4-.3c1.2 0 2-.5 2-2s-.8-2-1.9-2c-1.3 0-2 .8-2 2v.1c0 1.2.7 1.9 1.9 1.9z"/>
      <path id="numberize_svg__path1553" d="M290 532.8v-.4h.6c.5 0 .7-.2.9-.6l.3-.7-2.3-4.6h.5l1.5 3 .6 1.2.5-1.2 1.4-3h.4l-2.6 5.4c-.3.6-.7.9-1.3.9z"/>
    </g>
  </g>
  <g id="numberize_svg__g109883" style="fill:#161e26;fill-opacity:1">
    <g id="numberize_svg__g3709" style="fill:#161e26;fill-opacity:1" transform="translate(-6.587 -6.48)">
      <path id="numberize_svg__path1135" d="M177.518 164.23v-4.542h-20.535v4.542z" style="font-weight:500;font-size:97.3873px;font-family:&quot;Clash Display&quot;;-inkscape-font-specification:&quot;Clash Display Medium&quot;;letter-spacing:-2.41665px;fill:#161e26;fill-opacity:1;stroke-width:.0991506"/>
      <path id="numberize_svg__path1137" d="M194.987 165.07v-6.22L174.45 151v5.035l15.698 5.727v.395l-15.698 5.726v5.035z" style="font-weight:500;font-size:97.3873px;font-family:&quot;Clash Display&quot;;-inkscape-font-specification:&quot;Clash Display Medium&quot;;letter-spacing:-2.41665px;fill:#161e26;fill-opacity:1;stroke-width:.0866887"/>
    </g>
    <path id="numberize_svg__path1139" d="m217.533 205.266 8.472-22.144h27.049l-8.62 22.144h15.754l8.62-22.144h30.17v-14.268h-24.523l9.363-24.671h26.752v-14.268h-20.955l9.363-24.225h-15.754l-9.363 24.225h-27.05l9.364-24.225H240.42l-9.363 24.225h-29.279v14.268h23.631l-9.363 24.671h-25.711v14.268h19.915l-8.472 22.144zm23.185-61.38h28.09l-9.66 25.265h-28.09z" style="font-weight:500;font-size:97.3873px;font-family:&quot;Clash Display&quot;;-inkscape-font-specification:&quot;Clash Display Medium&quot;;letter-spacing:-2.41665px;fill:#161e26;fill-opacity:1;stroke-width:.260995"/>
    <g id="numberize_svg__g109864" style="fill:#161e26;fill-opacity:1">
      <g id="numberize_svg__g102316" style="fill:#161e26;fill-opacity:1" transform="translate(66.961 -292.107)">
        <g id="numberize_svg__g102281" aria-label="," style="font-weight:500;font-size:398.206px;line-height:1.25;font-family:&quot;Clash Display&quot;;-inkscape-font-specification:&quot;Clash Display Medium&quot;;fill:#161e26;fill-opacity:1;stroke-width:9.95516" transform="rotate(180 52.61 358.901) scale(.58861)">
          <path id="numberize_svg__path102279" d="M214.713 502.502c16.725 0 27.078-8.362 27.078-25.883v-64.51H206.75v55.351h15.53v9.557c0 7.168-2.787 8.362-7.964 8.362h-7.964v17.123z" style="font-weight:400;-inkscape-font-specification:&quot;Clash Display&quot;;fill:#161e26;fill-opacity:1"/>
        </g>
        <g id="numberize_svg__g102285" aria-label="," style="font-weight:500;font-size:398.206px;line-height:1.25;font-family:&quot;Clash Display&quot;;-inkscape-font-specification:&quot;Clash Display Medium&quot;;fill:#161e26;fill-opacity:1;stroke-width:9.95516" transform="rotate(180 64.922 358.901) scale(.58861)">
          <path id="numberize_svg__path102283" d="M214.713 502.502c16.725 0 27.078-8.362 27.078-25.883v-64.51H206.75v55.351h15.53v9.557c0 7.168-2.787 8.362-7.964 8.362h-7.964v17.123z" style="font-weight:400;-inkscape-font-specification:&quot;Clash Display&quot;;fill:#161e26;fill-opacity:1"/>
        </g>
      </g>
      <g id="numberize_svg__g102406" style="fill:#161e26;fill-opacity:1" transform="rotate(180 52.22 302.572)">
        <g id="numberize_svg__g102400" aria-label="," style="font-weight:500;font-size:398.206px;line-height:1.25;font-family:&quot;Clash Display&quot;;-inkscape-font-specification:&quot;Clash Display Medium&quot;;fill:#161e26;fill-opacity:1;stroke-width:9.95516" transform="rotate(180 52.61 358.901) scale(.58861)">
          <path id="numberize_svg__path102398" d="M214.713 502.502c16.725 0 27.078-8.362 27.078-25.883v-64.51H206.75v55.351h15.53v9.557c0 7.168-2.787 8.362-7.964 8.362h-7.964v17.123z" style="font-weight:400;-inkscape-font-specification:&quot;Clash Display&quot;;fill:#161e26;fill-opacity:1"/>
        </g>
        <g id="numberize_svg__g102404" aria-label="," style="font-weight:500;font-size:398.206px;line-height:1.25;font-family:&quot;Clash Display&quot;;-inkscape-font-specification:&quot;Clash Display Medium&quot;;fill:#161e26;fill-opacity:1;stroke-width:9.95516" transform="rotate(180 64.922 358.901) scale(.58861)">
          <path id="numberize_svg__path102402" d="M214.713 502.502c16.725 0 27.078-8.362 27.078-25.883v-64.51H206.75v55.351h15.53v9.557c0 7.168-2.787 8.362-7.964 8.362h-7.964v17.123z" style="font-weight:400;-inkscape-font-specification:&quot;Clash Display&quot;;fill:#161e26;fill-opacity:1"/>
        </g>
      </g>
      <g id="numberize_svg__text105854" aria-label="w" style="font-weight:500;font-size:17.7205px;line-height:1.25;font-family:&quot;Clash Display&quot;;-inkscape-font-specification:&quot;Clash Display Medium&quot;;fill:#161e26;fill-opacity:1;stroke-width:.294469">
        <path id="numberize_svg__path112091" d="M88.199 160.213h-.886l-1.613-4.59-1.577 4.59h-.904l-1.488-6.663h-.337q-.478 0-.478-.372 0-.354.478-.354h1.967q.478 0 .478.354 0 .372-.478.372h-.94l1.277 5.67 1.524-4.518h.903l1.578 4.519 1.222-5.67h-.886q-.478 0-.478-.373 0-.354.478-.354h1.967q.479 0 .479.354 0 .372-.479.372h-.336z" style="font-weight:400;font-family:FreeMono;-inkscape-font-specification:FreeMono;fill:#161e26;fill-opacity:1"/>
      </g>
    </g>
  </g>
</svg>
