<svg xmlns="http://www.w3.org/2000/svg" xml:space="preserve" id="Layer_1" width="877.2" height="1013" x="0" y="0" version="1.1"><style id="style2" type="text/css">.st4{fill:#60b0da}.st14{fill:#d8e039}</style><g id="g19" transform="translate(-101.4 -33.5)"><linearGradient id="SVGID_1_" x1="-3265.44" x2="-2252.48" y1="1336.21" y2="1336.21" gradientTransform="matrix(0 -1 -1 0 1876.21 -2218.96)" gradientUnits="userSpaceOnUse"><stop id="stop4" offset="0" style="stop-color:#1d6ca1"/><stop id="stop6" offset=".14" style="stop-color:#195e8c"/><stop id="stop8" offset=".54" style="stop-color:#113a56"/><stop id="stop10" offset=".84" style="stop-color:#0c2435"/><stop id="stop12" offset="1" style="stop-color:#0b1c29"/></linearGradient><path id="polygon15" d="M978.6 286.8 540 33.5 101.4 286.8v506.4L540 1046.5l438.6-253.3z" style="fill:url(#SVGID_1_)"/><path id="polygon17" d="M119.5 291.9V778l420.9 243.1 421-243.1V291.9l-421-243z" style="fill:#fff" transform="translate(-.45 5)"/></g><g id="text21" aria-label="serofoi" style="font-size:161px;font-family:ClashDisplay-Medium"><path id="path11102" d="M229.262 683.507v13.68q-6.132-3.145-12.735-4.718-6.604-1.572-13.679-1.572-10.77 0-16.194 3.302-5.346 3.302-5.346 9.905 0 5.031 3.852 7.94 3.852 2.83 15.487 5.424l4.953 1.1q15.408 3.303 21.854 9.356 6.525 5.974 6.525 16.745 0 12.263-9.748 19.417-9.67 7.154-26.65 7.154-7.075 0-14.78-1.415-7.625-1.337-16.115-4.088V750.8q8.019 4.167 15.801 6.29 7.783 2.043 15.409 2.043 10.22 0 15.722-3.459 5.503-3.537 5.503-9.905 0-5.896-4.01-9.04-3.93-3.145-17.373-6.054l-5.03-1.179q-13.444-2.83-19.418-8.647-5.975-5.896-5.975-16.116 0-12.42 8.805-19.182 8.804-6.76 24.999-6.76 8.018 0 15.093 1.179 7.076 1.179 13.05 3.537z"/><path id="path11104" d="M332.324 721.32v7.076h-66.507q.944 14.936 8.962 22.797 8.098 7.783 22.484 7.783 8.333 0 16.115-2.044 7.862-2.044 15.566-6.132v13.68q-7.783 3.3-15.959 5.03-8.175 1.73-16.587 1.73-21.068 0-33.41-12.264-12.264-12.264-12.264-33.175 0-21.618 11.634-34.275 11.714-12.735 31.524-12.735 17.767 0 28.065 11.477 10.377 11.4 10.377 31.052zm-14.465-4.245q-.157-11.87-6.682-18.946-6.446-7.075-17.137-7.075-12.107 0-19.418 6.84-7.232 6.839-8.333 19.26z"/><path id="path11106" d="M407.085 694.435q-2.437-1.415-5.345-2.044-2.83-.708-6.29-.708-12.263 0-18.866 8.019-6.525 7.94-6.525 22.876v46.382h-14.544v-88.047h14.544v13.679q4.56-8.019 11.87-11.87 7.311-3.931 17.767-3.931 1.493 0 3.302.235 1.808.158 4.009.55z"/><path id="path11108" d="M452.838 691.054q-11.634 0-18.395 9.12-6.76 9.04-6.76 24.841 0 15.801 6.681 24.92 6.761 9.041 18.474 9.041 11.557 0 18.317-9.119 6.761-9.12 6.761-24.842 0-15.644-6.76-24.763-6.761-9.198-18.318-9.198zm0-12.263q18.868 0 29.638 12.263 10.77 12.264 10.77 33.961 0 21.619-10.77 33.961-10.77 12.264-29.638 12.264-18.945 0-29.715-12.264-10.692-12.342-10.692-33.96 0-21.698 10.692-33.962 10.77-12.263 29.715-12.263z"/><path id="path11110" d="M561.796 646.638v12.028H547.96q-7.782 0-10.848 3.144-2.987 3.145-2.987 11.32v7.783h23.82v11.242h-23.82v76.805H519.58v-76.805h-13.836v-11.242h13.836v-6.132q0-14.7 6.84-21.382 6.839-6.761 21.697-6.761z"/><path id="path11112" d="M608.021 691.054q-11.635 0-18.395 9.12-6.761 9.04-6.761 24.841 0 15.801 6.682 24.92 6.76 9.041 18.474 9.041 11.556 0 18.317-9.119 6.76-9.12 6.76-24.842 0-15.644-6.76-24.763-6.76-9.198-18.317-9.198zm0-12.263q18.867 0 29.637 12.263 10.77 12.264 10.77 33.961 0 21.619-10.77 33.961-10.77 12.264-29.637 12.264-18.946 0-29.716-12.264-10.691-12.342-10.691-33.96 0-21.698 10.691-33.962 10.77-12.263 29.716-12.263z"/><path id="path11114" d="M672.405 680.913h14.465v88.047h-14.465Zm0-34.275h14.465v18.317h-14.465Z"/></g><g id="g151" transform="translate(-101.4 -33.5)"><path id="path23" d="M380.4 620.4c1-4.8 13.6 3.9 10.7 4.4 9.5-9.3 112.2-200.2 123.8-209.6 48.3-39 115.5-74.3 200.7-74.3 0-25.3 2.4-53.2 2.4-53.2s-154.1-29.3-245.3 74.9c-28.7 32.6-77.9 198.8-92.3 257.8z" class="st4"/><path id="path25" d="M719.8 310.2s-154.7 0-199.3 55.9c-44.6 55.9-52.4 60.5-69 100.5s-63.7 152.6-63.7 152.6" style="fill:none;stroke:#0d6c9f;stroke-width:19;stroke-miterlimit:10"/><linearGradient id="SVGID_00000107562637114194943520000013982333147448006541_" x1="421.16" x2="421.16" y1="712.55" y2="421.23" gradientTransform="matrix(1 0 0 -1 0 1080)" gradientUnits="userSpaceOnUse"><stop id="stop27" offset="0" style="stop-color:#4daadf"/><stop id="stop29" offset=".26" style="stop-color:#6bb6b1"/><stop id="stop31" offset=".6" style="stop-color:#8fc47b"/><stop id="stop33" offset=".86" style="stop-color:#a5cd5a"/><stop id="stop35" offset="1" style="stop-color:#aed14e"/></linearGradient><path id="rect38" d="M418.1 518.3h6.2v68.1h-6.2z" style="fill:url(#SVGID_00000107562637114194943520000013982333147448006541_)"/><linearGradient id="SVGID_00000093167682215349505480000006574737477050389693_" x1="392.92" x2="392.92" y1="623.5" y2="395.26" gradientTransform="matrix(1 0 0 -1 0 1080)" gradientUnits="userSpaceOnUse"><stop id="stop40" offset="0" style="stop-color:#4daadf"/><stop id="stop42" offset=".26" style="stop-color:#6bb6b1"/><stop id="stop44" offset=".6" style="stop-color:#8fc47b"/><stop id="stop46" offset=".86" style="stop-color:#a5cd5a"/><stop id="stop48" offset="1" style="stop-color:#aed14e"/></linearGradient><path id="rect51" d="M389.8 574.7h6.2v53.4h-6.2z" style="fill:url(#SVGID_00000093167682215349505480000006574737477050389693_)"/><linearGradient id="SVGID_00000060746936693013548760000005881342740243181735_" x1="467.8" x2="467.8" y1="939.35" y2="480.42" gradientTransform="matrix(1 0 0 -1 0 1080)" gradientUnits="userSpaceOnUse"><stop id="stop53" offset="0" style="stop-color:#4daadf"/><stop id="stop55" offset=".26" style="stop-color:#6bb6b1"/><stop id="stop57" offset=".6" style="stop-color:#8fc47b"/><stop id="stop59" offset=".86" style="stop-color:#a5cd5a"/><stop id="stop61" offset="1" style="stop-color:#aed14e"/></linearGradient><path id="rect64" d="M464.7 352.1h6.2v107.3h-6.2z" style="fill:url(#SVGID_00000060746936693013548760000005881342740243181735_)"/><linearGradient id="SVGID_00000111889055351578574410000014630265533006677939_" x1="541.08" x2="541.08" y1="818.01" y2="668.89" gradientTransform="matrix(1 0 0 -1 0 1080)" gradientUnits="userSpaceOnUse"><stop id="stop66" offset="0" style="stop-color:#4daadf"/><stop id="stop68" offset=".26" style="stop-color:#6bb6b1"/><stop id="stop70" offset=".6" style="stop-color:#8fc47b"/><stop id="stop72" offset=".86" style="stop-color:#a5cd5a"/><stop id="stop74" offset="1" style="stop-color:#aed14e"/></linearGradient><path id="rect77" d="M538 307.7h6.2V415H538z" style="fill:url(#SVGID_00000111889055351578574410000014630265533006677939_)"/><linearGradient id="SVGID_00000094616650126769520090000004853254509220364418_" x1="574.787" x2="574.487" y1="805.38" y2="653.95" gradientTransform="matrix(1 0 0 -1 0 1080)" gradientUnits="userSpaceOnUse"><stop id="stop79" offset="0" style="stop-color:#4daadf"/><stop id="stop81" offset=".26" style="stop-color:#6bb6b1"/><stop id="stop83" offset=".6" style="stop-color:#8fc47b"/><stop id="stop85" offset=".86" style="stop-color:#a5cd5a"/><stop id="stop87" offset="1" style="stop-color:#aed14e"/></linearGradient><path id="rect90" d="M571.5 320.3h6.2v107.3h-6.2z" style="fill:url(#SVGID_00000094616650126769520090000004853254509220364418_)"/><linearGradient id="SVGID_00000123411744980889805540000013693827207424214406_" x1="631.75" x2="631.75" y1="827.24" y2="594.82" gradientTransform="matrix(1 0 0 -1 0 1080)" gradientUnits="userSpaceOnUse"><stop id="stop92" offset="0" style="stop-color:#4daadf"/><stop id="stop94" offset=".26" style="stop-color:#6bb6b1"/><stop id="stop96" offset=".6" style="stop-color:#8fc47b"/><stop id="stop98" offset=".86" style="stop-color:#a5cd5a"/><stop id="stop100" offset="1" style="stop-color:#aed14e"/></linearGradient><path id="rect103" d="M628.7 353h6.2v107.3h-6.2z" style="fill:url(#SVGID_00000123411744980889805540000013693827207424214406_)"/><linearGradient id="SVGID_00000139266650358471527100000012152285977486081451_" x1="679.78" x2="679.78" y1="1001.81" y2="457.37" gradientTransform="matrix(1 0 0 -1 0 1080)" gradientUnits="userSpaceOnUse"><stop id="stop105" offset="0" style="stop-color:#4daadf"/><stop id="stop107" offset=".26" style="stop-color:#6bb6b1"/><stop id="stop109" offset=".6" style="stop-color:#8fc47b"/><stop id="stop111" offset=".86" style="stop-color:#a5cd5a"/><stop id="stop113" offset="1" style="stop-color:#aed14e"/></linearGradient><path id="rect116" d="M676.7 306.1h6.2v282.5h-6.2z" style="fill:url(#SVGID_00000139266650358471527100000012152285977486081451_)"/><linearGradient id="SVGID_00000169534642528869449070000009396313659755323794_" x1="705.86" x2="705.86" y1="991.38" y2="532.46" gradientTransform="matrix(1 0 0 -1 0 1080)" gradientUnits="userSpaceOnUse"><stop id="stop118" offset="0" style="stop-color:#4daadf"/><stop id="stop120" offset=".26" style="stop-color:#6bb6b1"/><stop id="stop122" offset=".6" style="stop-color:#8fc47b"/><stop id="stop124" offset=".86" style="stop-color:#a5cd5a"/><stop id="stop126" offset="1" style="stop-color:#aed14e"/></linearGradient><path id="rect129" d="M702.8 283.2h6.2V435h-6.2z" style="fill:url(#SVGID_00000169534642528869449070000009396313659755323794_)"/><circle id="circle131" cx="391" cy="617.2" r="18.3" class="st14"/><circle id="circle133" cx="468.9" cy="402.5" r="18.3" class="st14"/><circle id="circle135" cx="422.2" cy="551.5" r="18.3" class="st14"/><circle id="circle137" cx="706.2" cy="310.1" r="18.3" class="st14"/><circle id="circle139" cx="679" cy="313.2" r="18.3" class="st14"/><circle id="circle141" cx="540.3" cy="370.8" r="18.3" class="st14"/><circle id="circle143" cx="575.8" cy="337.3" r="18.3" class="st14"/><circle id="circle145" cx="632.3" cy="337.7" r="18.3" class="st14"/><path id="rect147" d="M391.2 280.4h46.4v31.7h-46.4z" class="st4"/><path id="rect149" d="M391.2 318h46.4v31.7h-46.4z" class="st14"/></g><path id="path153" d="M266.9 598.3V249.4c0-5.7-4.6-10.3-10.3-10.3-5.7 0-10.3 4.6-10.3 10.3v363.3c0 9.1 7.4 16.5 16.5 16.5h364c5.7 0 10.3-4.6 10.3-10.3 0-5.7-4.6-10.3-10.3-10.3H277.2c-5.7.1-10.3-4.6-10.3-10.3z" style="fill:#0d6c9f"/><g id="g199" transform="translate(-101.4 -33.5)"><g id="g179"><path id="path157" d="M570.1 912.4c-1.5 0-2.7 1.3-2.7 2.8 0 1.5 1.2 2.8 2.7 2.8 1.5 0 2.7-1.2 2.7-2.8 0-1.6-1.2-2.8-2.7-2.8m10.3-7.3c-4.2 0-7.2 2.6-7.2 6.4 0 3.8 3 6.4 7.2 6.4s7.2-2.6 7.2-6.4c0-3.8-2.9-6.4-7.2-6.4m0 12.5c-1.4 0-1.8-1.2-1.8-6.1 0-4.9.4-6.1 1.8-6.1s1.8 1.1 1.8 6.1-.4 6.1-1.8 6.1m16.7-12.7c-1.6 0-3.2 1.3-3.5 3l-4.9-3.1v13.1h5l.1-9.3c0-2 2.2-2 3.3-2zm8.8 9.5h-7.4l2.1-1.4c.9.3 1.2.3 2.3.3 4.1 0 6-1.4 6-4.1 0-1.5-.8-2.9-2.5-3.6h3.1v-1.9l-3.7 1.7c-.8-.3-1.8-.4-3-.4-4 0-5.9 1.8-5.9 4 0 1.7 1 2.9 2.6 3.6l-2.7 1.7 1.2 4.3h11.7c0-.1.1-.2.1-.3v-1.5c-.2-1.5-1.3-2.4-3.9-2.4m-2.9-9.1c1.5 0 1.7 1.5 1.7 3.9 0 2.1-.2 3.8-1.7 3.8s-1.7-1.7-1.7-3.8c0-2.4.2-3.9 1.7-3.9m-63.4-.3c-1.2 0-3.3.3-4.8.9v1.8c1.1-1.1 2.8-2.4 4.3-2.4s1.6 1.3 1.6 2.3v2.7c-5 0-7.2 1.8-7.2 4.3 0 2.2 1.5 3.3 3.7 3.3s3.7-1.4 3.8-2.8l4.8 2.9v-8.2c-.2-3.8-2.2-4.8-6.2-4.8m1 9.7c0 .6-.4 1.3-1.2 1.3-.9 0-1.4-.9-1.4-2.2 0-1.5.7-2.8 2.6-3.2zm13.9-10.1h-1.9v-3.3l-4.9 3.3h-1.9v1h1.8V918h4.9v-12.3h1.9zm-27-4.6v7.4c-.4-1.5-1.8-2.5-3.6-2.5-3.2 0-5.3 2.6-5.3 6.5s1.8 6.3 5.2 6.3c2.2 0 3.5-1.2 3.8-2.9l5 3V903Zm0 14.1c0 1.2-.5 2-1.5 2-1.9 0-2-2-2-4.7 0-3 .3-4.7 2-4.7 1 0 1.5.8 1.5 2zM560 905c-1.2 0-3.3.3-4.8.9v1.8c1.1-1.1 2.8-2.4 4.3-2.4s1.6 1.3 1.6 2.3v2.7c-5 0-7.2 1.8-7.2 4.3 0 2.2 1.5 3.3 3.7 3.3s3.7-1.4 3.8-2.8l4.8 2.9v-8.2c-.1-3.8-2.1-4.8-6.2-4.8m1 9.7c0 .6-.4 1.3-1.2 1.3-.9 0-1.4-.9-1.4-2.2 0-1.5.7-2.8 2.6-3.2z" style="fill-rule:evenodd;clip-rule:evenodd"/><g id="g177"><path id="path159" d="M443.5 918.9v-8h.5v1.7h.1c.3-1 1.2-1.8 2.6-1.8 1.9 0 3 1.3 3 3.1s-1.1 3.1-3 3.1c-1.3 0-2.3-.7-2.6-1.9v3.8zm3.1-2.4c1.5 0 2.5-.7 2.5-2.6 0-1.9-1.1-2.6-2.5-2.6-1.6 0-2.6 1-2.6 2.6v.1c.1 1.5 1.1 2.5 2.6 2.5z"/><path id="path161" d="M450.5 913.8c0-1.8 1.3-3.1 3.2-3.1 1.9 0 3.2 1.3 3.2 3.1s-1.3 3.1-3.2 3.1c-1.9 0-3.2-1.3-3.2-3.1zm5.9 0c0-1.6-.9-2.6-2.7-2.6-1.8 0-2.7 1-2.7 2.6s.9 2.6 2.7 2.6c1.8 0 2.7-1 2.7-2.6z"/><path id="path163" d="m459.5 916.8-2-6h.6l1.5 4.4.3 1.1.4-1.1 1.8-4.3h.7l1.8 4.3.4 1.1.3-1.1 1.5-4.4h.6l-2 6h-.7l-1.7-4.3-.5-1.2-.5 1.2-1.8 4.3z"/><path id="path165" d="M468 913.8c0-1.8 1.2-3.1 3.1-3.1 1.7 0 2.9 1 2.9 2.8 0 .2 0 .4-.1.5h-5.4c0 1.5.8 2.4 2.5 2.4 1.5 0 2.3-.6 2.3-1.6v-.1h.5v.1c0 1.2-1.2 2.1-2.8 2.1-1.8.1-3-1.2-3-3.1zm.5-.1h5v-.3c0-1.4-.9-2.2-2.4-2.2-1.8 0-2.5 1-2.6 2.5z"/><path id="path167" d="M475.2 916.8v-6h.5v1.6c.2-.9.9-1.8 2.1-1.8 1.4 0 2 1 2 2.1v.5h-.5v-.4c0-1.1-.5-1.7-1.6-1.7-1.4 0-2 .9-2 2.4v3.2h-.5z"/><path id="path169" d="M480.7 913.8c0-1.8 1.2-3.1 3.1-3.1 1.7 0 2.9 1 2.9 2.8 0 .2 0 .4-.1.5h-5.4c0 1.5.8 2.4 2.5 2.4 1.5 0 2.3-.6 2.3-1.6v-.1h.5v.1c0 1.2-1.2 2.1-2.8 2.1-1.9.1-3-1.2-3-3.1zm.5-.1h5v-.3c0-1.4-.9-2.2-2.4-2.2-1.8 0-2.6 1-2.6 2.5z"/><path id="path171" d="M487.5 913.8c0-1.8 1.1-3.1 2.9-3.1 1.4 0 2.4.8 2.6 1.8v-3.9h.5v8.1h-.5V915c-.3 1.2-1.3 1.9-2.6 1.9-1.9.1-2.9-1.3-2.9-3.1zm3 2.7c1.5 0 2.5-1 2.5-2.5v-.1c0-1.6-1-2.6-2.6-2.6-1.4 0-2.5.7-2.5 2.6 0 1.9 1.2 2.6 2.6 2.6z"/><path id="path173" d="M500 916.8v-8.1h.5v3.9c.3-1 1.2-1.8 2.6-1.8 1.9 0 2.9 1.3 2.9 3.1s-1 3.1-3 3.1c-1.3 0-2.3-.7-2.6-1.9v1.8zm3-.3c1.5 0 2.5-.7 2.5-2.6 0-1.9-1-2.6-2.5-2.6-1.6 0-2.6 1-2.6 2.6v.1c.1 1.5 1.1 2.5 2.6 2.5z"/><path id="path175" d="M507.3 918.9v-.5h.7c.7 0 .9-.2 1.2-.8l.4-.8-3-5.9h.6l1.9 3.8.7 1.5.7-1.5 1.8-3.8h.6l-3.3 6.9c-.4.8-.9 1.1-1.7 1.1z"/></g></g><g id="g197"><path id="path181" d="M446.5 891.3v-32h27.1v6.5h-19.9v6.3h19.2v6.4h-19.2v6.5h19.9v6.5h-27.1z"/><path id="path183" d="M477 899.5v-32.1h6.6v6.5h.5c.9-4.6 3.9-7 9.6-7 7.4 0 11.5 4.9 11.5 12.5s-4 12.4-11.2 12.4c-5.5 0-8.6-2.7-9.4-6.9h-.3v14.6zm14.2-14.2c4.6 0 6.7-1.5 6.7-5.9s-2.1-5.9-6.7-5.9-7 1.6-7 5.8v.4c0 4.1 2.5 5.5 7 5.6z"/><path id="path185" d="M508.1 865v-5.6h7.2v5.6zm0 26.3v-24h7.2v24z"/><path id="path187" d="m527.4 891.3-10.9-24h8l7.2 17h.5l7.2-17h7.8l-11 24z"/><path id="path189" d="M546.3 879.4c0-7.7 5.4-12.5 13.3-12.5s13 4.1 13 11.6c0 .9-.1 1.5-.2 2.3H553c.2 3.7 1.9 5.3 6.5 5.3 4.2 0 5.7-1.1 5.7-3.2v-.5h7.2v.5c0 5.2-5.1 8.8-12.7 8.8-7.9.1-13.4-3.8-13.4-12.3zm6.8-2.4h12.7c-.2-3.2-2.1-4.5-6.3-4.5-4.2 0-6.1 1.4-6.4 4.5z"/><path id="path191" d="M575.5 891.3v-24h6.6v6.4h.4c.7-3.9 3.2-6.8 8-6.8 5.3 0 7.5 3.7 7.5 8.4v4h-7v-2.5c0-2.6-1-3.8-4-3.8-3.2 0-4.3 1.5-4.3 4.5v13.9z"/><path id="path193" d="M599.9 883.1v-.1h7.2v.4c0 2.2 1.3 2.7 5.4 2.7 3.8 0 4.7-.6 4.7-2.1 0-1.3-.7-1.7-3.5-2.1l-6.7-.8c-4.8-.5-7.5-2.7-7.5-6.7s3.6-7.5 11.8-7.5c8.2 0 12.3 3 12.3 8.8v.1h-7.2v-.3c0-2-1-3-5.3-3-3.6 0-4.5.6-4.5 2.2 0 1.2.7 1.8 3.8 2.2l5.1.6c6.4.7 8.8 2.9 8.8 6.8 0 4.5-4.5 7.5-11.8 7.5-8.2 0-12.6-3.1-12.6-8.7z"/><path id="path195" d="M625.8 879.4c0-7.7 5.4-12.5 13.3-12.5s13 4.1 13 11.6c0 .9-.1 1.5-.2 2.3h-19.5c.2 3.7 1.9 5.3 6.5 5.3 4.2 0 5.7-1.1 5.7-3.2v-.5h7.2v.5c0 5.2-5.1 8.8-12.7 8.8-7.8.1-13.3-3.8-13.3-12.3zm6.7-2.4h12.7c-.2-3.2-2.1-4.5-6.3-4.5-4.2 0-6 1.4-6.4 4.5z"/></g></g></svg>