<svg xmlns="http://www.w3.org/2000/svg" width="2521" height="2911" viewBox="0 0 667.015 770.202"><defs><linearGradient id="a" x1="133.059" x2="470.048" y1="392.074" y2="392.074" gradientTransform="matrix(.26388 0 0 .26445 -29.162 -34.601)" gradientUnits="userSpaceOnUse"><stop offset="0" style="stop-color:#0b1e2c"/><stop offset="1" style="stop-color:#0d6c9f"/></linearGradient></defs><path d="m94.56 94.492-43.643 25.8L7.01 94.958 6.743 43.82 50.386 18.02l43.909 25.336Z" style="fill:#fff;fill-opacity:1;stroke:none;stroke-width:2.2231" transform="matrix(7.49508 0 0 7.45916 -44.161 -131.12)"/><path d="m94.016 94.727-43.97 25.042L6.45 94.074l.375-50.738 43.972-25.042L94.392 43.99Z" style="fill:#fff;fill-opacity:1;stroke-width:1.76164" transform="matrix(7.49508 0 0 7.45916 -44.161 -131.12)"/><path d="m50.578 18.56 43.773 25.6-.353 49.961L50.4 119.514 6.451 94.328l.177-50.58Z" style="fill:#fff;fill-opacity:1;stroke-width:1.23892" transform="matrix(7.49508 0 0 7.45916 -44.161 -131.12)"/><path d="M12.873 73.505h75.046v17.586H12.873z" class="st1" style="fill:none;stroke-width:.264161" transform="matrix(7.49508 0 0 7.45916 -44.161 -131.12)"/><g aria-label="superspreading" class="st2 st3" style="font-weight:500;font-size:12.8209px;font-family:&quot;Clash Display&quot;;-inkscape-font-specification:&quot;Clash Display, Medium&quot;;stroke-width:.144055"><path d="M83.12 534.502c10.058 0 16.667-7.036 16.667-18.932 0-10.49-3.88-15.607-12.357-17.525l-8.261-2.047c-5.388-1.28-6.825-3.07-6.825-8.059 0-6.012 2.299-8.57 8.836-8.57 7.903 0 10.058 3.965 10.058 11.512v.768h7.687v-.384c0-15.095-6.61-22.898-17.53-22.898-10.99 0-16.666 7.931-16.666 19.06 0 10.618 4.095 15.734 10.848 17.27l9.77 2.302c5.1 1.28 6.825 2.942 6.825 8.187 0 5.628-2.084 8.187-9.052 8.187-7.471 0-10.273-2.687-10.273-11.001v-1.024h-7.759v.384c0 14.71 6.538 22.77 18.032 22.77zM120.261 534.502c9.196 0 13.937-10.234 15.087-20.98h.43v19.7h7.113v-63.575h-7.687v31.468c0 13.815-3.664 20.978-11.566 20.978-7.543 0-10.633-6.012-10.633-17.908v-34.538h-7.687v38.247c0 14.711 4.886 26.608 14.943 26.608zM157.69 554.969v-39.655h.287c1.437 11.64 6.61 19.188 14.656 19.188 11.135 0 17.241-13.304 17.241-33.004 0-19.7-6.25-33.13-17.313-33.13-8.406 0-13.434 7.163-14.871 18.931h-.647v-17.652h-7.112v85.322zm0-52.447v-1.151c0-13.688 4.454-20.34 12.428-20.34 7.472 0 11.997 5.117 11.997 20.467 0 15.223-4.454 20.468-12.14 20.468-7.616 0-12.285-6.396-12.285-19.444zM213.222 534.502c10.632 0 18.104-9.338 18.104-22.898v-1.151h-7.759v1.023c0 7.547-3.09 11.897-10.56 11.897-8.262 0-11.639-6.524-11.926-18.804h30.317c.215-1.92.287-3.71.287-6.013 0-19.316-7.543-30.189-18.607-30.189-11.638 0-19.253 13.304-19.253 33.131 0 21.235 7.687 33.004 19.397 33.004zm-.287-55.262c7.615 0 11.422 5.629 11.422 17.398v.255h-23.204c.431-11.384 3.88-17.653 11.782-17.653zM245.263 533.222v-35.69c0-11.384 2.514-17.396 8.62-17.396 5.317 0 7.472 4.221 7.472 13.304v5.628h7.687v-8.315c0-12.024-3.52-22.386-11.638-22.386-7.328 0-11.207 8.187-12.285 18.42h-.503v-17.14h-7.112v63.575zM290.81 534.502c10.057 0 16.666-7.036 16.666-18.932 0-10.49-3.88-15.607-12.356-17.525l-8.262-2.047c-5.388-1.28-6.825-3.07-6.825-8.059 0-6.012 2.3-8.57 8.837-8.57 7.902 0 10.057 3.965 10.057 11.512v.768h7.687v-.384c0-15.095-6.61-22.898-17.529-22.898-10.991 0-16.667 7.931-16.667 19.06 0 10.618 4.095 15.734 10.848 17.27l9.77 2.302c5.101 1.28 6.825 2.942 6.825 8.187 0 5.628-2.083 8.187-9.052 8.187-7.471 0-10.273-2.687-10.273-11.001v-1.024h-7.759v.384c0 14.71 6.538 22.77 18.032 22.77zM320.838 554.969v-39.655h.288c1.436 11.64 6.609 19.188 14.655 19.188 11.135 0 17.242-13.304 17.242-33.004 0-19.7-6.25-33.13-17.314-33.13-8.405 0-13.434 7.163-14.87 18.931h-.647v-17.652h-7.112v85.322zm0-52.447v-1.151c0-13.688 4.454-20.34 12.429-20.34 7.471 0 11.997 5.117 11.997 20.467 0 15.223-4.454 20.468-12.141 20.468-7.615 0-12.285-6.396-12.285-19.444zM366.17 533.222v-35.69c0-11.384 2.514-17.396 8.62-17.396 5.316 0 7.471 4.221 7.471 13.304v5.628h7.687v-8.315c0-12.024-3.52-22.386-11.638-22.386-7.327 0-11.207 8.187-12.284 18.42h-.503v-17.14h-7.112v63.575zM412.794 534.502c10.632 0 18.103-9.338 18.103-22.898v-1.151h-7.759v1.023c0 7.547-3.089 11.897-10.56 11.897-8.262 0-11.638-6.524-11.925-18.804h30.316c.216-1.92.287-3.71.287-6.013 0-19.316-7.543-30.189-18.606-30.189-11.638 0-19.253 13.304-19.253 33.131 0 21.235 7.687 33.004 19.397 33.004zm-.288-55.262c7.615 0 11.423 5.629 11.423 17.398v.255h-23.205c.431-11.384 3.88-17.653 11.782-17.653zM447.564 534.502c8.118 0 13.793-6.396 15.661-17.142h.503v15.862h7.112v-38.631c0-15.223-5.1-26.224-16.451-26.224-11.35 0-18.104 10.873-18.104 25.328v.512h7.687v-.512c0-9.338 3.233-13.175 9.842-13.175 6.825 0 9.411 3.71 9.411 14.199v3.71l-16.236 3.07c-7.04 1.407-11.494 6.523-11.494 16.373 0 10.49 4.67 16.63 12.07 16.63zm-4.31-17.525c0-4.99 1.94-6.652 5.962-7.548l14.01-2.814c0 12.536-5.46 17.909-13.579 17.909-4.454 0-6.393-2.43-6.393-7.547zM493.47 534.502c8.046 0 13.29-6.908 14.799-19.572h.503v18.292h7.112v-85.706h-7.759v39.4h-.43c-1.438-10.746-6.25-18.549-14.728-18.549-10.848 0-17.026 13.304-17.026 33.131 0 19.572 6.25 33.004 17.529 33.004zm-9.699-33.004c0-15.35 4.455-20.595 11.926-20.595 7.974 0 12.428 6.652 12.428 20.212v1.023c0 13.304-4.67 19.7-12.284 19.7-7.687 0-12.07-5.117-12.07-20.34zM530.827 462.227v-14.71h-7.76v14.71zm0 70.995v-63.575h-7.76v63.575zM545.77 533.222v-31.468c0-13.815 3.52-20.979 11.35-20.979 7.4 0 10.417 6.013 10.417 17.91v34.537h7.758v-38.247c0-14.711-4.885-26.608-14.799-26.608-9.051 0-13.793 10.234-14.87 20.98h-.504v-19.7h-7.112v63.575zM597.71 527.466c8.118 0 12.93-6.908 14.224-16.502h.503v15.607c0 14.199-2.946 18.164-11.064 18.164-7.615 0-10.632-3.454-10.632-12.664h-7.687c0 15.35 7.328 24.177 17.888 24.177 11.71 0 19.181-9.082 19.181-30.445v-56.156h-7.112v15.862h-.43c-1.294-11.13-6.897-17.142-14.369-17.142-10.847 0-17.457 11.897-17.457 29.55s6.322 29.55 16.954 29.55zm-9.124-29.55c0-13.047 4.382-17.524 11.853-17.524 7.544 0 11.998 5.5 11.998 16.246v1.79c0 11.257-4.31 17.142-12.213 17.142-7.328 0-11.638-4.606-11.638-17.653z"/></g><path d="M50.423 19.16 93.54 44.126v49.927l-43.143 24.964L7.253 94.052V44.125l43.17-24.964m0-1.534L5.96 43.357V94.82l44.463 25.73L94.86 94.82V43.358z" class="st4" style="fill:url(#a);stroke-width:.264161" transform="matrix(7.49508 0 0 7.45916 -44.161 -131.12)"/><path d="M225.08 609.131v-33.73h28.48v6.706h-20.964v6.51h20.173v6.706h-20.173v6.707h20.964v6.706h-28.48zM257.12 617.81v-33.73h6.922v6.903h.593c.99-4.734 4.154-7.298 10.087-7.298 7.713 0 12.065 5.129 12.065 13.019 0 7.89-4.154 13.019-11.867 13.019-5.933 0-9.098-2.96-9.889-7.299h-.396v15.386zm14.833-14.991c4.747 0 7.12-1.578 7.12-6.115s-2.175-6.115-7.12-6.115c-4.944 0-7.318 1.578-7.318 6.115v.394c0 4.143 2.572 5.72 7.318 5.72zM289.753 581.515v-5.917h7.516v5.917zm0 27.616V584.08h7.516v25.248h-7.516zM309.927 609.131l-11.472-25.249h8.505l7.515 17.753h.594l7.515-17.753h8.307l-11.471 25.249zM329.902 596.704c0-8.088 5.736-13.019 14.042-13.019 8.307 0 13.845 4.34 13.845 12.23 0 .986-.198 1.578-.198 2.367h-20.569c.198 3.945 1.978 5.523 6.922 5.523 4.55 0 6.131-1.183 6.131-3.353v-.592h7.516v.592c0 5.523-5.34 9.27-13.449 9.27-8.504 0-14.24-4.142-14.24-13.018zm7.12-2.564h13.449c-.198-3.354-2.176-4.735-6.725-4.735-4.548 0-6.526 1.578-6.724 4.735zM360.558 609.131V584.08h6.922v6.706h.395c.791-4.142 3.363-7.101 8.505-7.101 5.735 0 7.91 3.945 7.91 8.877v4.142h-7.515v-2.762c0-2.761-1.186-3.945-4.153-3.945-3.362 0-4.549 1.578-4.549 4.734v14.597h-7.515zM386.07 600.649l7.516-.197v.394c0 2.17 1.385 2.96 5.736 2.96 3.956 0 4.944-.593 4.944-2.17 0-1.382-.79-1.776-3.757-2.17l-7.12-.79c-4.945-.591-7.911-2.761-7.911-7.1 0-4.34 3.757-7.891 12.46-7.891 8.306 0 12.855 3.156 12.855 9.271v.197h-7.515v-.394c0-1.973-.99-3.156-5.736-3.156-3.758 0-4.747.591-4.747 2.17 0 1.38.791 1.775 3.956 2.17l5.34.591c6.724.79 9.295 2.959 9.295 7.101 0 4.734-4.746 7.89-12.46 7.89-8.108.198-12.855-3.156-12.855-8.876zM413.364 596.704c0-8.088 5.736-13.019 14.042-13.019 8.307 0 13.845 4.34 13.845 12.23 0 .986-.198 1.578-.198 2.367h-20.569c.198 3.945 1.978 5.523 6.922 5.523 4.55 0 6.132-1.183 6.132-3.353v-.592h7.515v.592c0 5.523-5.34 9.27-13.449 9.27-8.504 0-14.24-4.142-14.24-13.018zm7.12-2.564h13.45c-.199-3.354-2.176-4.735-6.725-4.735-4.55 0-6.33 1.578-6.725 4.735z"/><path d="M336 528.3c-1.1 0-2 .9-2 2s.8 2 2 2c1.1 0 2-.8 2-2-.1-1.1-.9-2-2-2m7.3-5.2c-3 0-5.2 1.9-5.2 4.6 0 2.7 2.1 4.6 5.2 4.6s5.2-1.9 5.2-4.6c0-2.8-2.1-4.6-5.2-4.6m0 8.9c-1 0-1.3-.9-1.3-4.3 0-3.6.3-4.3 1.3-4.3s1.3.8 1.3 4.3c0 3.4-.3 4.3-1.3 4.3m12-9.1c-1.1 0-2.3.9-2.5 2.2l-3.5-2.2v9.3h3.6v-6.6c0-1.4 1.6-1.4 2.4-1.4zm6.2 6.8h-5.3l1.5-1c.6.2.9.2 1.7.2 2.9 0 4.3-1 4.3-2.9 0-1.1-.6-2-1.7-2.6h2.2v-1.3l-2.6 1.2c-.6-.2-1.3-.3-2.1-.3-2.9 0-4.2 1.2-4.2 2.9 0 1.2.7 2.1 1.8 2.6l-1.9 1.2.9 3.1h8.4c0-.1 0-.1.1-.2v-1.1c-.4-1.1-1.3-1.8-3.1-1.8m-2.1-6.5c1 0 1.2 1.1 1.2 2.8 0 1.5-.2 2.7-1.2 2.7s-1.2-1.2-1.2-2.7c0-1.7.2-2.8 1.2-2.8m-45.2-.2c-.9 0-2.3.2-3.5.6v1.3c.8-.8 2-1.7 3-1.7s1.1.9 1.1 1.6v1.9c-3.6 0-5.2 1.2-5.2 3 0 1.6 1.1 2.3 2.6 2.3 1.6 0 2.6-1 2.7-2l3.4 2.1v-5.9c.2-2.5-1.2-3.2-4.1-3.2m.7 6.9c0 .4-.3.9-.9.9-.7 0-1-.6-1-1.6s.5-2 1.9-2.3zm10-7.2h-1.4v-2.4l-3.5 2.4h-1.3v.7h1.3v8.8h3.5v-8.8h1.4zm-19.3-3.3v5.3c-.3-1.1-1.3-1.8-2.6-1.8-2.3 0-3.8 1.9-3.8 4.7 0 2.7 1.3 4.5 3.7 4.5 1.6 0 2.5-.8 2.7-2l3.6 2.1v-10.6zm0 10.1c0 .8-.4 1.4-1.1 1.4-1.3 0-1.4-1.5-1.4-3.4 0-2.1.2-3.3 1.4-3.3.7 0 1.1.6 1.1 1.4zm23.2-6.5c-.9 0-2.3.2-3.5.6v1.3c.8-.8 2-1.7 3-1.7s1.1.9 1.1 1.6v1.9c-3.6 0-5.2 1.2-5.2 3 0 1.6 1.1 2.3 2.6 2.3 1.6 0 2.6-1 2.7-2l3.4 2.1v-5.9c.2-2.5-1.3-3.2-4.1-3.2m.7 6.9c0 .4-.3.9-.9.9-.7 0-1-.6-1-1.6s.5-2 1.9-2.3z" class="st12" style="clip-rule:evenodd;fill-rule:evenodd" transform="matrix(1.97778 0 0 1.97256 -266.793 -408.116)"/><path d="M208.664 642.862v-12.427h.792v2.564h.197c.396-1.578 1.978-2.762 4.154-2.762 2.966 0 4.549 1.973 4.549 4.734 0 2.762-1.583 4.735-4.55 4.735-1.977 0-3.56-1.184-3.955-2.96v5.918h-1.187zm4.747-3.748c2.373 0 3.956-.986 3.956-3.945 0-2.96-1.583-3.945-3.758-3.945-2.373 0-3.956 1.578-3.956 3.945v.197c-.197 2.367 1.385 3.748 3.758 3.748zM219.344 635.169c0-2.762 1.978-4.734 4.945-4.734 2.967 0 4.944 1.972 4.944 4.734 0 2.761-1.977 4.734-4.944 4.734-2.967 0-4.945-1.973-4.945-4.734zm9.098 0c0-2.367-1.384-3.945-4.153-3.945-2.769 0-4.153 1.578-4.153 3.945s1.384 3.945 4.153 3.945c2.769 0 4.153-1.578 4.153-3.945zM233.387 639.706l-3.165-9.074h.791l2.176 6.707.395 1.578.594-1.776 2.769-6.706h.988l2.77 6.706.593 1.578.395-1.578 2.176-6.706h.79l-3.164 9.073h-.988l-2.77-6.51-.79-1.774-.792 1.775-2.768 6.51zM246.242 635.169c0-2.762 1.78-4.734 4.747-4.734 2.57 0 4.549 1.578 4.549 4.142v.789h-8.307c0 2.367 1.187 3.748 3.956 3.748 2.373 0 3.56-.986 3.56-2.367v-.197h.79v.197c0 1.972-1.977 3.156-4.35 3.156-2.967 0-4.945-1.973-4.945-4.734zm.791-.395h7.714v-.394c0-2.17-1.385-3.354-3.758-3.354-2.571 0-3.758 1.578-3.956 3.748zM257.515 639.706v-9.074h.792v2.564c.197-1.38 1.384-2.761 3.362-2.761 2.175 0 3.164 1.578 3.164 3.353v.789h-.79v-.592c0-1.775-.792-2.564-2.572-2.564-2.176 0-2.967 1.38-2.967 3.748v4.931h-.989zM265.822 635.169c0-2.762 1.78-4.734 4.747-4.734 2.57 0 4.549 1.578 4.549 4.142v.789h-8.307c0 2.367 1.187 3.748 3.956 3.748 2.373 0 3.56-.986 3.56-2.367v-.197h.79v.197c0 1.972-1.977 3.156-4.35 3.156-3.165 0-4.945-1.973-4.945-4.734zm.791-.395h7.714v-.394c0-2.17-1.385-3.354-3.758-3.354-2.571 0-3.758 1.578-3.956 3.748zM276.304 635.169c0-2.762 1.583-4.734 4.55-4.734 2.175 0 3.56 1.183 3.955 2.761v-5.918h.79v12.428h-.592v-2.762c-.396 1.775-1.978 2.959-4.154 2.959-2.966 0-4.549-1.973-4.549-4.734zm4.747 3.945c2.373 0 3.956-1.381 3.956-3.748v-.197c0-2.565-1.583-3.945-3.956-3.945-2.176 0-3.758.986-3.758 3.945-.198 2.959 1.385 3.945 3.758 3.945zM295.489 639.706v-12.428h.79v5.918c.396-1.578 1.78-2.761 4.154-2.761 2.967 0 4.55 1.972 4.55 4.734 0 2.761-1.583 4.734-4.55 4.734-1.978 0-3.56-1.184-3.955-2.959v2.762zm4.746-.592c2.374 0 3.956-.986 3.956-3.945 0-2.96-1.582-3.945-3.758-3.945-2.57 0-3.955 1.578-3.955 3.945v.197c0 2.367 1.384 3.748 3.757 3.748zM306.762 642.862v-.79h1.187c.989 0 1.384-.394 1.78-1.183l.593-1.38-4.549-9.074h.99l2.966 5.917 1.186 2.367.99-2.367 2.768-5.917h.791l-5.142 10.651c-.593 1.184-1.384 1.776-2.571 1.776z"/><g style="fill:#f8494a;fill-opacity:1" transform="matrix(3.27048 0 0 3.5275 257.483 30.84)"><ellipse cx="24.035" cy="64.922" rx="8.012" ry="8.288" style="fill:#f8494a;fill-opacity:1;stroke-width:1.9989"/><path d="M21.023 74.315h5.471A11.906 11.906 45 0 1 38.4 86.22v9.918H9.117v-9.918a11.906 11.906 135 0 1 11.906-11.906z" style="fill:#f8494a;fill-opacity:1;stroke-width:1.793"/></g><g style="fill:#106ba0;fill-opacity:1"><path d="M105.484 16.023 92.267-25.692 48.484-3.868v67.132l36.073 18.51zM128.186 15.609l13.217-41.716 43.783 21.825V62.85l-36.073 18.51z" style="opacity:.2;fill:#f8494a;fill-opacity:1;stroke-width:1.79008" transform="matrix(4.7886 0 0 5.57422 -225.991 220.606)"/><g transform="matrix(3.27048 0 0 3.5275 106.67 -62.032)"><ellipse cx="24.035" cy="64.922" rx="8.012" ry="8.288" style="fill:#106ba0;fill-opacity:1;stroke-width:1.9989"/><path d="M21.023 74.315h5.471A11.906 11.906 45 0 1 38.4 86.22v9.918H9.117v-9.918a11.906 11.906 135 0 1 11.906-11.906z" style="fill:#106ba0;fill-opacity:1;stroke-width:1.793"/></g><g style="fill:#106ba0;fill-opacity:1" transform="matrix(3.27048 0 0 3.5275 19.097 88.472)"><ellipse cx="24.035" cy="64.922" rx="8.012" ry="8.288" style="fill:#106ba0;fill-opacity:1;stroke-width:1.9989"/><path d="M21.023 74.315h5.471A11.906 11.906 45 0 1 38.4 86.22v9.918H9.117v-9.918a11.906 11.906 135 0 1 11.906-11.906z" style="fill:#106ba0;fill-opacity:1;stroke-width:1.793"/></g><g style="fill:#106ba0;fill-opacity:1" transform="matrix(3.27048 0 0 3.5275 401.419 -62.032)"><ellipse cx="24.035" cy="64.922" rx="8.012" ry="8.288" style="fill:#106ba0;fill-opacity:1;stroke-width:1.9989"/><path d="M21.023 74.315h5.471A11.906 11.906 45 0 1 38.4 86.22v9.918H9.117v-9.918a11.906 11.906 135 0 1 11.906-11.906z" style="fill:#106ba0;fill-opacity:1;stroke-width:1.793"/></g><g style="fill:#106ba0;fill-opacity:1" transform="matrix(3.27048 0 0 3.5275 492.7 88.472)"><ellipse cx="24.035" cy="64.922" rx="8.012" ry="8.288" style="fill:#106ba0;fill-opacity:1;stroke-width:1.9989"/><path d="M21.023 74.315h5.471A11.906 11.906 45 0 1 38.4 86.22v9.918H9.117v-9.918a11.906 11.906 135 0 1 11.906-11.906z" style="fill:#106ba0;fill-opacity:1;stroke-width:1.793"/></g></g></svg>